<svg xmlns="http://www.w3.org/2000/svg" viewBox="196.37 351.49 631.27 65.02">
  <g style="font-style:normal;font-weight:400;font-size:72px;line-height:1;font-family:'Brandmark Sans 22';font-variant-ligatures:normal;text-align:center;text-anchor:middle">
    <path style="font-style:normal;font-weight:400;font-size:72px;line-height:1;font-family:'Brandmark Sans 22';font-variant-ligatures:normal;text-align:center;text-anchor:middle" d="M293.186-38.232h33.552V-50.4h-33.48c-17.856 0-25.704 0-25.704 15.48v19.44C267.554 0 275.402 0 293.258 0h33.48v-24.48h-15.264v12.24h-18.288c-9.36 0-10.296.072-10.296-8.928v-8.064c0-9 .936-9 10.296-9z" fill="#689def" transform="matrix(1.29 0 0 1.29 -148.778 416.508)"/>
    <path style="font-style:normal;font-weight:400;font-size:72px;line-height:1;font-family:'Brandmark Sans 22';font-variant-ligatures:normal;text-align:center;text-anchor:middle" d="M382.132-12.24h1.44c10.584 0 13.176-8.568 13.176-19.08 0-10.512-2.592-19.08-13.176-19.08h-47.376V0h15.336v-38.16h26.28c3.816 0 4.176 3.024 4.176 6.84s-.36 6.84-4.176 6.84h-11.016v12.24L381.196 0h15.336z" fill="#72a4ef" transform="matrix(1.29 0 0 1.29 -148.778 416.508)"/>
    <path style="font-style:normal;font-weight:400;font-size:72px;line-height:1;font-family:'Brandmark Sans 22';font-variant-ligatures:normal;text-align:center;text-anchor:middle" d="m475.995 0-27.432-50.4h-19.44L401.692 0h16.992l20.16-37.008L458.932 0Z" fill="#7dabef" transform="matrix(1.29 0 0 1.29 -148.778 416.508)"/>
    <path style="font-style:normal;font-weight:400;font-size:72px;line-height:1;font-family:'Brandmark Sans 22';font-variant-ligatures:normal;text-align:center;text-anchor:middle" d="M515.298-50.4c-18.936 0-34.272 0-34.272 18.36V0h15.336v-28.368c0-10.584 8.424-9.792 18.936-9.792s19.08-.72 19.08 9.792l-.144 12.24V0h15.336v-32.04c0-18.36-15.336-18.36-34.272-18.36z" fill="#87b2ef" transform="matrix(1.29 0 0 1.29 -148.778 416.508)"/>
    <path style="font-style:normal;font-weight:400;font-size:72px;line-height:1;font-family:'Brandmark Sans 22';font-variant-ligatures:normal;text-align:center;text-anchor:middle" d="M610.207-50.4H583.35c-16.488 0-24.48 0-25.56 12.24h52.416zm0 19.08h-52.56v15.84C557.647 0 565.495 0 583.35 0h26.856v-12.24h-26.928c-8.568 0-10.08.072-10.296-6.84h37.224z" fill="#91b9ee" transform="matrix(1.29 0 0 1.29 -148.778 416.508)"/>
    <path style="font-style:normal;font-weight:400;font-size:72px;line-height:1;font-family:'Brandmark Sans 22';font-variant-ligatures:normal;text-align:center;text-anchor:middle" d="M665.492-12.24h1.44c10.584 0 13.176-8.568 13.176-19.08 0-10.512-2.592-19.08-13.176-19.08h-47.376V0h15.336v-38.16h26.28c3.816 0 4.176 3.024 4.176 6.84s-.36 6.84-4.176 6.84h-11.016v12.24L664.556 0h15.336z" fill="#9cc0ee" transform="matrix(1.29 0 0 1.29 -148.778 416.508)"/>
    <path style="font-style:normal;font-weight:400;font-size:72px;line-height:1;font-family:'Brandmark Sans 22';font-variant-ligatures:normal;text-align:center;text-anchor:middle" d="M722.635-50.4c-18.936 0-34.272 0-34.272 18.36v13.68C688.363 0 703.699 0 722.635 0s34.272 0 34.272-18.36v-13.68c0-18.36-15.336-18.36-34.272-18.36zm18.936 20.016v10.368c-1.008 8.424-9.144 7.776-18.936 7.776-10.512 0-18.936.792-18.936-9.792v-6.336c0-10.584 8.424-9.792 18.936-9.792 9.792 0 17.928-.648 18.936 7.776z" fill="#a6c7ee" transform="matrix(1.29 0 0 1.29 -148.778 416.508)"/>
  </g>
</svg>