<svg xmlns="http://www.w3.org/2000/svg" viewBox="0 0 24 24">
  <path d="M12 1.75C6.34 1.75 1.75 6.34 1.75 12S6.34 22.25 12 22.25 22.25 17.66 22.25 12C22.244 6.341 17.659 1.756 12 1.75zM20.75 12A8.75 8.75 0 1 1 12 3.25 8.76 8.76 0 0 1 20.75 12zm-10.541 4.75a6.343 6.343 0 0 0 4.554-1.89 6.49 6.49 0 0 0 1.869-4.606v-.297a4.62 4.62 0 0 0 1.118-1.18c-.411.186-.848.31-1.296.365.466-.28.817-.718.99-1.237a4.492 4.492 0 0 1-1.43.557 2.243 2.243 0 0 0-2.707-.44 2.296 2.296 0 0 0-1.136 2.523 6.381 6.381 0 0 1-4.657-2.417 2.303 2.303 0 0 0 .697 3.047 2.224 2.224 0 0 1-1.021-.284 2.274 2.274 0 0 0 1.833 2.237c-.34.106-.7.13-1.05.068a2.264 2.264 0 0 0 2.108 1.582 4.496 4.496 0 0 1-3.331.946 6.34 6.34 0 0 0 3.459 1.026"></path>
</svg>