<svg xmlns="http://www.w3.org/2000/svg" viewBox="0 0 24 24">
  <path d="M12 1.75C6.34 1.75 1.75 6.34 1.75 12S6.34 22.25 12 22.25 22.25 17.66 22.25 12C22.244 6.341 17.659 1.756 12 1.75zM20.75 12A8.75 8.75 0 1 1 12 3.25 8.76 8.76 0 0 1 20.75 12zM17.5 9a1.469 1.469 0 0 0-1.062-1.011c-.935-.239-4.688-.239-4.688-.239s-3.753 0-4.688.239A1.469 1.469 0 0 0 6 8.999c-.251.891-.251 2.751-.251 2.751s0 1.86.25 2.75c.139.493.545.88 1.062 1.011.935.239 4.688.239 4.688.239s3.753 0 4.688-.239a1.469 1.469 0 0 0 1.061-1.01c.251-.892.251-2.751.251-2.751s0-1.86-.25-2.75zm-6.75 4.75v-4l3 2-3 2z"></path>
</svg>